<svg width="20" height="20" viewBox="0 0 20 20" fill="none" xmlns="http://www.w3.org/2000/svg">
<g clip-path="url(#clip0_154_661)">
<path d="M4.16667 1.66666V6.66666M1.66667 4.16666H6.66667" stroke="#E6E6E6" stroke-width="1.5" stroke-linecap="round" stroke-linejoin="round"/>
<path d="M16.6667 15L16.6667 5.83332M5.83333 16.6667H15M15 4.16666H10M4.16667 9.99999V15" stroke="#E6E6E6" stroke-width="1.5" stroke-linecap="round" stroke-linejoin="round"/>
<path d="M15 4.16667C15 3.38099 15 2.98816 15.2441 2.74408C15.4882 2.5 15.881 2.5 16.6667 2.5C17.4523 2.5 17.8452 2.5 18.0893 2.74408C18.3333 2.98816 18.3333 3.38099 18.3333 4.16667C18.3333 4.95234 18.3333 5.34518 18.0893 5.58926C17.8452 5.83333 17.4523 5.83333 16.6667 5.83333C15.881 5.83333 15.4882 5.83333 15.2441 5.58926C15 5.34518 15 4.95234 15 4.16667Z" stroke="#E6E6E6" stroke-width="1.5"/>
<path d="M15 16.6667C15 15.881 15 15.4882 15.2441 15.2441C15.4882 15 15.881 15 16.6667 15C17.4523 15 17.8452 15 18.0893 15.2441C18.3333 15.4882 18.3333 15.881 18.3333 16.6667C18.3333 17.4523 18.3333 17.8452 18.0893 18.0893C17.8452 18.3333 17.4523 18.3333 16.6667 18.3333C15.881 18.3333 15.4882 18.3333 15.2441 18.0893C15 17.8452 15 17.4523 15 16.6667Z" stroke="#E6E6E6" stroke-width="1.5"/>
<path d="M2.5 16.6667C2.5 15.881 2.5 15.4882 2.74408 15.2441C2.98816 15 3.38099 15 4.16667 15C4.95234 15 5.34518 15 5.58926 15.2441C5.83333 15.4882 5.83333 15.881 5.83333 16.6667C5.83333 17.4523 5.83333 17.8452 5.58926 18.0893C5.34518 18.3333 4.95234 18.3333 4.16667 18.3333C3.38099 18.3333 2.98816 18.3333 2.74408 18.0893C2.5 17.8452 2.5 17.4523 2.5 16.6667Z" stroke="#E6E6E6" stroke-width="1.5"/>
</g>
<defs>
<clipPath id="clip0_154_661">
<rect width="20" height="20" fill="white"/>
</clipPath>
</defs>
</svg>
