<svg width="20" height="20" viewBox="0 0 20 20" fill="none" xmlns="http://www.w3.org/2000/svg">
<path d="M16.6667 7.44447C16.6667 11.6667 12.0513 15 10 15C7.94872 15 3.33333 11.6667 3.33333 7.44447C3.33333 4.25349 6.3181 1.66669 10 1.66669C13.6819 1.66669 16.6667 4.25349 16.6667 7.44447Z" stroke="#E6E6E6" stroke-width="1.5"/>
<path d="M12.5 7.44447C12.5 11.6667 10.7692 15 10 15C9.23077 15 7.5 11.6667 7.5 7.44447C7.5 4.25349 8.61929 1.66669 10 1.66669C11.3807 1.66669 12.5 4.25349 12.5 7.44447Z" stroke="#E6E6E6" stroke-width="1.5"/>
<path d="M7.5 16.6667C7.5 16.2792 7.5 16.0854 7.54259 15.9265C7.65818 15.4951 7.99511 15.1582 8.42648 15.0426C8.58543 15 8.77918 15 9.16667 15H10.8333C11.2208 15 11.4146 15 11.5735 15.0426C12.0049 15.1582 12.3418 15.4951 12.4574 15.9265C12.5 16.0854 12.5 16.2792 12.5 16.6667C12.5 17.0542 12.5 17.2479 12.4574 17.4069C12.3418 17.8382 12.0049 18.1752 11.5735 18.2907C11.4146 18.3333 11.2208 18.3333 10.8333 18.3333H9.16667C8.77918 18.3333 8.58543 18.3333 8.42648 18.2907C7.99511 18.1752 7.65818 17.8382 7.54259 17.4069C7.5 17.2479 7.5 17.0542 7.5 16.6667Z" stroke="#E6E6E6" stroke-width="1.5" stroke-linejoin="round"/>
</svg>
