<svg width="20" height="20" viewBox="0 0 20 20" fill="none" xmlns="http://www.w3.org/2000/svg">
<path d="M1.66667 9.99998C1.66667 7.66643 1.66667 6.49965 2.12081 5.60835C2.52028 4.82434 3.1577 4.18692 3.94171 3.78745C4.83301 3.33331 5.99978 3.33331 8.33333 3.33331H11.6667C14.0002 3.33331 15.167 3.33331 16.0583 3.78745C16.8423 4.18692 17.4797 4.82434 17.8792 5.60835C18.3333 6.49965 18.3333 7.66643 18.3333 9.99998C18.3333 12.3335 18.3333 13.5003 17.8792 14.3916C17.4797 15.1756 16.8423 15.813 16.0583 16.2125C15.167 16.6666 14.0002 16.6666 11.6667 16.6666H8.33333C5.99978 16.6666 4.83301 16.6666 3.94171 16.2125C3.1577 15.813 2.52028 15.1756 2.12081 14.3916C1.66667 13.5003 1.66667 12.3335 1.66667 9.99998Z" stroke="#E6E6E6" stroke-width="1.5" stroke-linejoin="round"/>
</svg>
