<svg width="20" height="20" viewBox="0 0 20 20" fill="none" xmlns="http://www.w3.org/2000/svg">
<path d="M11.6667 16.25H10.8333C8.47631 16.25 7.2978 16.25 6.56557 15.5178C5.83333 14.7856 5.83333 13.607 5.83333 11.25V9.58335M5.83333 6.66669V9.58335M5.83333 9.58335H11.6667" stroke="#E6E6E6" stroke-width="1.5" stroke-linecap="round" stroke-linejoin="round"/>
<path d="M11.6667 9.58333C11.6667 8.60124 11.6667 8.11019 11.9596 7.8051C12.2525 7.5 12.7239 7.5 13.6667 7.5H14.6667C15.6095 7.5 16.0809 7.5 16.3738 7.8051C16.6667 8.11019 16.6667 8.60124 16.6667 9.58333C16.6667 10.5654 16.6667 11.0565 16.3738 11.3616C16.0809 11.6667 15.6095 11.6667 14.6667 11.6667H13.6667C12.7239 11.6667 12.2525 11.6667 11.9596 11.3616C11.6667 11.0565 11.6667 10.5654 11.6667 9.58333Z" stroke="#E6E6E6" stroke-width="1.5"/>
<path d="M11.6667 16.25C11.6667 15.2679 11.6667 14.7769 11.9596 14.4718C12.2525 14.1667 12.7239 14.1667 13.6667 14.1667H14.6667C15.6095 14.1667 16.0809 14.1667 16.3738 14.4718C16.6667 14.7769 16.6667 15.2679 16.6667 16.25C16.6667 17.2321 16.6667 17.7232 16.3738 18.0283C16.0809 18.3334 15.6095 18.3334 14.6667 18.3334H13.6667C12.7239 18.3334 12.2525 18.3334 11.9596 18.0283C11.6667 17.7232 11.6667 17.2321 11.6667 16.25Z" stroke="#E6E6E6" stroke-width="1.5"/>
<path d="M4.40476 1.66669H7.2619C8.99067 1.66669 9.16667 2.59163 9.16667 4.16669C9.16667 5.74175 8.99067 6.66669 7.2619 6.66669H4.40476C2.676 6.66669 2.5 5.74175 2.5 4.16669C2.5 2.59163 2.676 1.66669 4.40476 1.66669Z" stroke="#E6E6E6" stroke-width="1.5"/>
</svg>
