<svg width="20" height="20" viewBox="0 0 20 20" fill="none" xmlns="http://www.w3.org/2000/svg">
<g clip-path="url(#clip0_154_822)">
<path d="M16.4238 6.37533C16.5547 6.24438 16.7804 6.23103 16.9131 6.3758C17.6904 7.22356 18.1205 7.85128 18.2622 8.54646C18.3437 8.9464 18.3553 9.35356 18.2964 9.74951C18.1374 10.8197 17.2703 11.6868 15.5362 13.4209L13.4209 15.5362C11.6868 17.2703 10.8197 18.1374 9.74949 18.2964C9.35354 18.3553 8.94638 18.3437 8.54644 18.2622C7.85133 18.1206 7.22368 17.6905 6.37606 16.9134C6.23112 16.7805 6.24452 16.5546 6.37562 16.4235C7.10577 15.6933 7.07108 14.4748 6.29813 13.7019C5.52518 12.9289 4.30668 12.8942 3.57653 13.6244C3.44543 13.7555 3.21951 13.7689 3.08663 13.624C2.30955 12.7763 1.87947 12.1487 1.73782 11.4536C1.65632 11.0536 1.64473 10.6465 1.70357 10.2505C1.86261 9.18032 2.72967 8.31325 4.46381 6.57912L6.5791 4.46383C8.31323 2.72969 9.1803 1.86263 10.2505 1.70359C10.6465 1.64475 11.0536 1.65635 11.4536 1.73784C12.1487 1.87951 12.7765 2.30966 13.6242 3.08691C13.769 3.21964 13.7556 3.44529 13.6247 3.57624C12.8945 4.30639 12.9292 5.5249 13.7022 6.29785C14.4751 7.07079 15.6936 7.10549 16.4238 6.37533Z" stroke="#E6E6E6" stroke-width="1.5" stroke-linejoin="round"/>
<path d="M15.8333 12.5L7.5 4.16669" stroke="#E6E6E6" stroke-width="1.5" stroke-linecap="round" stroke-linejoin="round"/>
</g>
<defs>
<clipPath id="clip0_154_822">
<rect width="20" height="20" fill="white"/>
</clipPath>
</defs>
</svg>
