<svg width="20" height="20" viewBox="0 0 20 20" fill="none" xmlns="http://www.w3.org/2000/svg">
<g clip-path="url(#clip0_10_499)">
<path d="M1.66667 5.00001C1.66667 3.42866 1.66667 2.64298 2.15483 2.15483C2.64298 1.66667 3.42865 1.66667 5 1.66667C6.57135 1.66667 7.35703 1.66667 7.84518 2.15483C8.33333 2.64298 8.33333 3.42866 8.33333 5.00001V6.66667C8.33333 8.23802 8.33333 9.02367 7.84518 9.51184C7.35703 10 6.57135 10 5 10C3.42865 10 2.64298 10 2.15483 9.51184C1.66667 9.02367 1.66667 8.23802 1.66667 6.66667V5.00001Z" stroke="#E6E6E6" stroke-width="1.5"/>
<path d="M1.66667 15.8333C1.66667 15.0567 1.66667 14.6685 1.79353 14.3622C1.96269 13.9538 2.28715 13.6293 2.69553 13.4602C3.00182 13.3333 3.3901 13.3333 4.16667 13.3333H5.83333C6.6099 13.3333 6.99818 13.3333 7.30448 13.4602C7.71285 13.6293 8.03731 13.9538 8.20647 14.3622C8.33333 14.6685 8.33333 15.0567 8.33333 15.8333C8.33333 16.6099 8.33333 16.9982 8.20647 17.3045C8.03731 17.7128 7.71285 18.0373 7.30448 18.2065C6.99818 18.3333 6.6099 18.3333 5.83333 18.3333H4.16667C3.3901 18.3333 3.00182 18.3333 2.69553 18.2065C2.28715 18.0373 1.96269 17.7128 1.79353 17.3045C1.66667 16.9982 1.66667 16.6099 1.66667 15.8333Z" stroke="#E6E6E6" stroke-width="1.5"/>
<path d="M11.6667 13.3333C11.6667 11.762 11.6667 10.9763 12.1548 10.4882C12.643 10 13.4287 10 15 10C16.5713 10 17.357 10 17.8452 10.4882C18.3333 10.9763 18.3333 11.762 18.3333 13.3333V15C18.3333 16.5713 18.3333 17.357 17.8452 17.8452C17.357 18.3333 16.5713 18.3333 15 18.3333C13.4287 18.3333 12.643 18.3333 12.1548 17.8452C11.6667 17.357 11.6667 16.5713 11.6667 15V13.3333Z" stroke="#E6E6E6" stroke-width="1.5"/>
<path d="M11.6667 4.16667C11.6667 3.39011 11.6667 3.00182 11.7935 2.69553C11.9627 2.28716 12.2872 1.9627 12.6955 1.79354C13.0018 1.66667 13.3901 1.66667 14.1667 1.66667H15.8333C16.6099 1.66667 16.9982 1.66667 17.3045 1.79354C17.7128 1.9627 18.0373 2.28716 18.2065 2.69553C18.3333 3.00182 18.3333 3.39011 18.3333 4.16667C18.3333 4.94324 18.3333 5.33152 18.2065 5.63781C18.0373 6.04619 17.7128 6.37065 17.3045 6.53981C16.9982 6.66667 16.6099 6.66667 15.8333 6.66667H14.1667C13.3901 6.66667 13.0018 6.66667 12.6955 6.53981C12.2872 6.37065 11.9627 6.04619 11.7935 5.63781C11.6667 5.33152 11.6667 4.94324 11.6667 4.16667Z" stroke="#E6E6E6" stroke-width="1.5"/>
</g>
<defs>
<clipPath id="clip0_10_499">
<rect width="20" height="20" fill="white"/>
</clipPath>
</defs>
</svg>
