<svg width="20" height="20" viewBox="0 0 20 20" fill="none" xmlns="http://www.w3.org/2000/svg">
<path d="M7.08337 12.0833H12.9167M7.08337 7.91667H10" stroke="#545454" stroke-width="1.5" stroke-linecap="round" stroke-linejoin="round"/>
<path d="M11.8088 17.4088C15.2946 17.1771 18.0713 14.361 18.2998 10.8257C18.3445 10.1339 18.3445 9.41744 18.2998 8.7256C18.0713 5.19031 15.2946 2.37428 11.8088 2.14256C10.6196 2.06351 9.37793 2.06367 8.19112 2.14256C4.70528 2.37428 1.92863 5.19031 1.70016 8.7256C1.65545 9.41744 1.65545 10.1339 1.70016 10.8257C1.78337 12.1133 2.35282 13.3055 3.02322 14.3122C3.41247 15.0169 3.15558 15.8965 2.75014 16.6648C2.4578 17.2188 2.31163 17.4958 2.42899 17.6959C2.54636 17.896 2.80851 17.9024 3.33281 17.9152C4.36968 17.9404 5.06886 17.6465 5.62386 17.2372C5.93863 17.0051 6.09601 16.889 6.20449 16.8757C6.31296 16.8623 6.52643 16.9503 6.9533 17.1261C7.33696 17.2841 7.78243 17.3816 8.19112 17.4088C9.37793 17.4877 10.6196 17.4878 11.8088 17.4088Z" stroke="#545454" stroke-width="1.5" stroke-linejoin="round"/>
</svg>
