<svg width="20" height="20" viewBox="0 0 20 20" fill="none" xmlns="http://www.w3.org/2000/svg">
<path d="M2.10831 11.995C1.9311 13.1226 2.72337 13.9052 3.69342 14.2952C7.41238 15.7905 12.5877 15.7905 16.3067 14.2952C17.2767 13.9052 18.069 13.1226 17.8918 11.995C17.7829 11.3021 17.2443 10.7251 16.8454 10.1617C16.3228 9.4146 16.2708 8.59976 16.2708 7.73284C16.2708 4.38259 13.4633 1.66667 10 1.66667C6.53681 1.66667 3.72931 4.38259 3.72931 7.73284C3.72924 8.59976 3.67731 9.4146 3.15471 10.1617C2.75574 10.7251 2.21722 11.3021 2.10831 11.995Z" stroke="#545454" stroke-width="1.5" stroke-linecap="round" stroke-linejoin="round"/>
<path d="M7.5 17.5C8.16345 18.0182 9.03956 18.3333 10 18.3333C10.9604 18.3333 11.8366 18.0182 12.5 17.5" stroke="#545454" stroke-width="1.5" stroke-linecap="round" stroke-linejoin="round"/>
</svg>
