<svg width="20" height="20" viewBox="0 0 20 20" fill="none" xmlns="http://www.w3.org/2000/svg">
<path d="M2.55137 12.6611L2.85573 10.9349C3.21546 8.8947 3.39533 7.87461 4.10762 7.27064C4.8199 6.66667 5.84309 6.66667 7.88945 6.66667H12.1105C14.1569 6.66667 15.1801 6.66667 15.8924 7.27064C16.6047 7.87461 16.7845 8.8947 17.1443 10.9349L17.4486 12.6611C17.9464 15.4843 18.1953 16.8958 17.4289 17.8229C16.6625 18.75 15.2466 18.75 12.4149 18.75H7.58509C4.75338 18.75 3.33753 18.75 2.57111 17.8229C1.80468 16.8958 2.05358 15.4843 2.55137 12.6611Z" stroke="#E6E6E6" stroke-width="1.5"/>
<path d="M6.25 6.66667L6.38985 4.98849C6.54631 3.11089 8.11589 1.66667 10 1.66667C11.8841 1.66667 13.4537 3.11089 13.6102 4.98849L13.75 6.66667" stroke="#E6E6E6" stroke-width="1.5"/>
<path d="M12.5 9.16667C12.3916 10.3442 11.3047 11.25 10 11.25C8.69527 11.25 7.60835 10.3442 7.5 9.16667" stroke="#E6E6E6" stroke-width="1.5" stroke-linecap="round"/>
</svg>
