<svg width="16" height="16" viewBox="0 0 16 16" fill="none" xmlns="http://www.w3.org/2000/svg">
<g clip-path="url(#clip0_1_3531)">
<path d="M7.9974 0.833374C8.69691 0.833374 9.24792 1.36173 9.59969 2.07465L10.7744 4.44348C10.81 4.51679 10.8944 4.62003 11.0214 4.71447C11.1482 4.8088 11.2724 4.86085 11.3541 4.87458L13.4805 5.23079C14.2486 5.35986 14.8924 5.73637 15.1014 6.39197C15.3102 7.04704 15.0042 7.72778 14.4519 8.28114L14.4514 8.28168L12.7994 9.94728C12.7339 10.0133 12.6606 10.1377 12.6146 10.2997C12.5689 10.4606 12.5649 10.6072 12.5856 10.7019L12.5859 10.7032L13.0585 12.7636C13.2545 13.6212 13.1896 14.4716 12.5847 14.9162C11.9778 15.3623 11.1485 15.1645 10.395 14.7158L8.4017 13.5261C8.318 13.476 8.17424 13.4355 8.00073 13.4355C7.82849 13.4355 7.68171 13.4755 7.59256 13.5274L7.5913 13.5281L5.60192 14.7155C4.84937 15.1658 4.02103 15.36 3.41407 14.9135C2.80966 14.4689 2.74143 13.6201 2.93807 12.7632L3.4106 10.7032L3.41089 10.7019C3.43161 10.6072 3.42755 10.4606 3.38187 10.2997C3.33587 10.1377 3.26252 10.0133 3.19705 9.94728L1.5439 8.28047C0.995098 7.72713 0.690138 7.04698 0.897298 6.39288C1.10506 5.73687 1.74762 5.35991 2.51622 5.23075L4.64088 4.87484L4.64156 4.87472C4.71945 4.86121 4.8418 4.80974 4.96832 4.71516C5.09507 4.6204 5.17973 4.51694 5.21541 4.44348L5.21721 4.43982L6.39041 2.07402L6.39088 2.07309C6.74597 1.36076 7.29869 0.833374 7.9974 0.833374Z" fill="#FFC239"/>
</g>
<defs>
<clipPath id="clip0_1_3531">
<rect width="16" height="16" fill="white"/>
</clipPath>
</defs>
</svg>
