<svg width="20" height="20" viewBox="0 0 20 20" fill="none" xmlns="http://www.w3.org/2000/svg">
<path d="M15.0483 7.11369L14.215 6.60236C13.3794 6.08966 12.9616 5.83331 12.5 5.83331C12.0384 5.83331 11.6206 6.08966 10.785 6.60236L9.95168 7.11369C9.16123 7.59871 8.766 7.84122 8.54967 8.23197C8.33333 8.62271 8.33333 9.09406 8.33333 10.0368V14.9244C8.33333 16.5314 8.33333 17.3349 8.82149 17.8341C9.30964 18.3333 10.0953 18.3333 11.6667 18.3333H13.3333C14.9047 18.3333 15.6904 18.3333 16.1785 17.8341C16.6667 17.3349 16.6667 16.5314 16.6667 14.9244V10.0368C16.6667 9.09406 16.6667 8.62271 16.4503 8.23197C16.234 7.84122 15.8388 7.59871 15.0483 7.11369Z" stroke="#E6E6E6" stroke-width="1.5" stroke-linecap="round" stroke-linejoin="round"/>
<path d="M11.6667 5.92341C11.1343 5.41258 10.8159 5.14405 10.4145 5.04315C9.94781 4.92585 9.45757 5.0574 8.47709 5.3205L7.49923 5.58289C6.57168 5.83178 6.10791 5.95623 5.78572 6.26358C5.46353 6.57094 5.33868 7.00801 5.08899 7.88214L3.79439 12.4143C3.36875 13.9043 3.15593 14.6494 3.51719 15.2363C3.82779 15.741 5.06958 16.3616 6.25 16.6667" stroke="#E6E6E6" stroke-width="1.5" stroke-linecap="round" stroke-linejoin="round"/>
<path d="M12.0789 8.33335C12.78 7.86717 13.4023 7.11911 13.789 6.18879C14.5873 4.26804 14.0787 2.29772 12.653 1.78797C11.2272 1.27821 9.42429 2.42206 8.62596 4.34281C8.4925 4.66391 8.39556 4.9864 8.33333 5.30322" stroke="#E6E6E6" stroke-width="1.5" stroke-linecap="round"/>
</svg>
