<svg width="20" height="20" viewBox="0 0 20 20" fill="none" xmlns="http://www.w3.org/2000/svg">
<path d="M12.5152 7.86112L12.9552 8.7483C13.0152 8.8718 13.1752 8.99026 13.3102 9.01294L14.1076 9.14652C14.6175 9.23221 14.7375 9.60523 14.37 9.9732L13.7501 10.5983C13.6451 10.7041 13.5876 10.9083 13.6201 11.0544L13.7976 11.8282C13.9376 12.4407 13.6151 12.6776 13.0777 12.3575L12.3303 11.9114C12.1953 11.8307 11.9728 11.8307 11.8353 11.9114L11.0879 12.3575C10.553 12.6776 10.228 12.4381 10.368 11.8282L10.5455 11.0544C10.578 10.9083 10.5205 10.7041 10.4155 10.5983L9.79555 9.9732C9.43059 9.60523 9.54807 9.23221 10.058 9.14652L10.8554 9.01294C10.9879 8.99026 11.1479 8.8718 11.2079 8.7483L11.6478 7.86112C11.8878 7.37973 12.2778 7.37973 12.5152 7.86112Z" stroke="#E6E6E6" stroke-width="1.5" stroke-linecap="round" stroke-linejoin="round"/>
<path d="M6.66667 14.1667L6.66667 17.0834" stroke="#E6E6E6" stroke-width="1.5" stroke-linecap="round" stroke-linejoin="round"/>
<path d="M6.66667 2.91669V5.83335" stroke="#E6E6E6" stroke-width="1.5" stroke-linecap="round" stroke-linejoin="round"/>
<path d="M18.3333 7.39914C18.2776 6.11408 18.1213 5.2775 17.6836 4.61572C17.4318 4.23499 17.119 3.90384 16.7593 3.63725C15.7872 2.91669 14.4159 2.91669 11.6731 2.91669H8.32755C5.58482 2.91669 4.21345 2.91669 3.24136 3.63725C2.88171 3.90384 2.56889 4.23499 2.31706 4.61572C1.87938 5.27743 1.72314 6.11389 1.66736 7.39871C1.65782 7.61842 1.84707 7.78648 2.05442 7.78648C3.20924 7.78648 4.14541 8.77751 4.14541 10C4.14541 11.2225 3.20924 12.2136 2.05442 12.2136C1.84707 12.2136 1.65782 12.3816 1.66736 12.6013C1.72314 13.8861 1.87938 14.7226 2.31706 15.3843C2.56889 15.7651 2.88171 16.0962 3.24136 16.3628C4.21345 17.0834 5.58482 17.0834 8.32754 17.0834H8.32755H11.6731H11.6731C14.4159 17.0834 15.7872 17.0834 16.7593 16.3628C17.119 16.0962 17.4318 15.7651 17.6836 15.3843C18.1213 14.7225 18.2776 13.886 18.3333 12.6009V7.39914Z" stroke="#E6E6E6" stroke-width="1.5" stroke-linejoin="round"/>
</svg>
